<?xml version="1.0" encoding="UTF-8" standalone="no"?>
<!-- Created with Inkscape (http://www.inkscape.org/) -->

<svg
   width="361.69394mm"
   height="175.34303mm"
   viewBox="0 0 361.69393 175.34303"
   version="1.1"
   id="svg1"
   xml:space="preserve"
   inkscape:version="1.4 (86a8ad7, 2024-10-11)"
   sodipodi:docname="Logo.svg"
   xmlns:inkscape="http://www.inkscape.org/namespaces/inkscape"
   xmlns:sodipodi="http://sodipodi.sourceforge.net/DTD/sodipodi-0.dtd"
   xmlns:xlink="http://www.w3.org/1999/xlink"
   xmlns="http://www.w3.org/2000/svg"
   xmlns:svg="http://www.w3.org/2000/svg"><sodipodi:namedview
     id="namedview1"
     pagecolor="#505050"
     bordercolor="#ffffff"
     borderopacity="1"
     inkscape:showpageshadow="0"
     inkscape:pageopacity="0"
     inkscape:pagecheckerboard="1"
     inkscape:deskcolor="#505050"
     inkscape:document-units="mm"
     inkscape:zoom="0.35945918"
     inkscape:cx="592.55685"
     inkscape:cy="304.6243"
     inkscape:window-width="1920"
     inkscape:window-height="1009"
     inkscape:window-x="1912"
     inkscape:window-y="-8"
     inkscape:window-maximized="1"
     inkscape:current-layer="layer1" /><defs
     id="defs1"><linearGradient
       id="linearGradient17"
       inkscape:collect="always"><stop
         style="stop-color:#e8ad2b;stop-opacity:0.50689656;"
         offset="0"
         id="stop17" /><stop
         style="stop-color:#e8ad2b;stop-opacity:0;"
         offset="1"
         id="stop18" /></linearGradient><linearGradient
       id="linearGradient15"
       inkscape:collect="always"><stop
         style="stop-color:#000000;stop-opacity:1;"
         offset="0"
         id="stop15" /><stop
         style="stop-color:#000000;stop-opacity:0;"
         offset="1"
         id="stop16" /></linearGradient><linearGradient
       inkscape:collect="always"
       xlink:href="#linearGradient15"
       id="linearGradient16"
       x1="-316.32498"
       y1="128.26468"
       x2="-4.1301641"
       y2="128.26468"
       gradientUnits="userSpaceOnUse" /><linearGradient
       inkscape:collect="always"
       xlink:href="#linearGradient17"
       id="linearGradient18"
       x1="-316.32498"
       y1="128.26468"
       x2="-4.1301641"
       y2="128.26468"
       gradientUnits="userSpaceOnUse"
       gradientTransform="matrix(0.94327608,0,0,0.94327607,51.259872,21.463468)" /></defs><g
     inkscape:label="Calque 1"
     inkscape:groupmode="layer"
     id="layer1"
     transform="translate(315.46032,-29.475764)"><g
       id="g15"
       inkscape:label="Bee"
       transform="translate(-119.9777,0.73605948)"><path
         style="fill:none;fill-opacity:1;stroke:#000000;stroke-width:2.7;stroke-linecap:round;stroke-linejoin:round;stroke-dasharray:none;stroke-opacity:1"
         d="m 122.57131,73.907115 c 0,0 -4.68426,2.602365 -6.50591,4.944491 -1.82165,2.342126 -3.90354,8.848034 -2.8626,12.231107 1.04095,3.383071 1.30118,7.026381 2.60236,8.067326 1.30118,1.040941 36.95356,21.079141 36.95356,21.079141 0,0 4.16378,1.56142 8.32756,-0.78071 4.16378,-2.34213 3.90355,-5.46496 3.64331,-8.5878 -0.26023,-3.12283 -0.52047,-14.573232 -7.54685,-24.201975 -7.02638,-9.628743 -10.66969,-9.628743 -10.66969,-9.628743 0,0 2.8626,-13.011817 6.24567,-16.134654 3.38307,-3.122835 8.32756,-6.505906 9.88898,-6.505906 1.56142,0 1.04095,0.260237 -0.52047,-2.602365 -1.56142,-2.862598 -4.42402,-0.780708 -6.24567,0.520473 -1.82166,1.301181 -8.32757,7.026381 -9.10828,10.409454 -0.7807,3.383071 -3.38307,11.970869 -3.38307,11.970869 0,0 -1.82165,-15.874415 -7.02638,-21.859851 -5.20472,-5.985433 -16.13465,-8.587798 -16.13465,-8.587798 0,0 -2.60236,-1.040945 -2.60236,2.08189 0,3.122837 4.16378,2.862601 4.16378,2.862601 0,0 7.54685,2.08189 10.14921,5.464964 2.60237,3.383071 4.68426,8.327561 4.9445,10.409451 0.26023,2.08189 1.30118,7.546853 1.30118,7.546853 0,0 -10.66969,-1.561417 -15.61418,1.301182 z"
         id="path1" /><path
         style="fill:none;fill-opacity:1;stroke:#5d5d5d;stroke-width:2.69999;stroke-linecap:round;stroke-linejoin:round;stroke-dasharray:none;stroke-opacity:1"
         d="m 101.24063,101.24063 c 0,0 -43.199236,-64.018142 -57.512234,-68.962633 -14.312997,-4.944488 -17.956306,-0.260236 -21.079142,1.821656 -3.122836,2.08189 -6.245671,12.231106 -5.204726,18.737014 1.040945,6.505908 8.327562,24.722452 26.804341,37.994505 18.47678,13.272048 46.322064,19.257488 46.322064,19.257488 l 3.383073,-4.16378 c 0,0 -27.58505,-34.611433 -48.403956,-43.199231 -20.818905,-8.587801 -28.105522,-8.587801 -28.105522,-8.587801 0,0 3.903545,10.669691 5.725199,13.792525 1.821654,3.122838 12.75158,16.39489 12.75158,16.39489 0,0 21.339378,2.342127 30.968121,5.725197 9.628746,3.383074 26.544106,14.57324 26.544106,14.57324"
         id="path11"
         inkscape:label="path11" /><path
         style="fill:none;fill-opacity:1;stroke:#e8ad2b;stroke-width:2.59391;stroke-linecap:round;stroke-linejoin:round;stroke-dasharray:none;stroke-opacity:1"
         d="M 58.239896,125.12063 103.36686,170.2476"
         id="path9" /><path
         style="fill:none;fill-opacity:1;stroke:#e8ad2b;stroke-width:2.63293;stroke-linecap:round;stroke-linejoin:round;stroke-dasharray:none;stroke-opacity:1"
         d="m 94.432254,107.44407 40.143456,36.50015"
         id="path7" /><path
         style="fill:none;fill-opacity:1;stroke:#e8ad2b;stroke-width:2.69999;stroke-linecap:round;stroke-linejoin:round;stroke-dasharray:none;stroke-opacity:1"
         d="m 46.322064,135.06265 46.061831,45.54136"
         id="path10" /><path
         style="fill:none;fill-opacity:1;stroke:#e8ad2b;stroke-width:2.69999;stroke-linecap:round;stroke-linejoin:round;stroke-dasharray:none;stroke-opacity:1"
         d="m 81.97444,119.18824 30.96812,30.44765"
         id="path8" /><path
         style="fill:none;fill-opacity:1;stroke:#e9ae2c;stroke-width:2.69999;stroke-linecap:round;stroke-linejoin:round;stroke-dasharray:none;stroke-opacity:1"
         d="m 130.11816,80.673259 c 0,0 -2.60236,4.163782 -2.08189,6.505908 0.52047,2.342126 1.04095,4.163783 2.60236,5.204728 1.56142,1.040944 16.39489,8.848035 16.39489,8.848035 0,0 2.08189,-4.944492 0.78071,-8.848035 -1.30118,-3.903546 -4.94449,-7.026381 -4.94449,-7.026381 0,0 -9.36851,-6.245672 -12.75158,-4.684255 z"
         id="path4" /><path
         style="fill:none;fill-opacity:1;stroke:#363636;stroke-width:2.69999;stroke-linecap:round;stroke-linejoin:round;stroke-dasharray:none;stroke-opacity:1"
         d="M 41.663896,154.58907 23.967825,174.8875 54.415473,202.73279 72.371781,185.03672 Z"
         id="path6" /><path
         style="fill:none;fill-opacity:1;stroke:#000000;stroke-width:2.69999;stroke-linecap:round;stroke-linejoin:round;stroke-dasharray:none;stroke-opacity:1"
         d="m 34.090959,147.03352 28.365759,-29.66694 c 0,0 4.684252,-2.08189 9.888979,-2.08189 5.204727,0 9.888979,4.42402 9.888979,4.42402 l 10.409455,-11.97087 c 0,0 4.684255,-4.94449 9.368509,-5.46497 4.68425,-0.52047 10.92992,1.56142 10.92992,1.56142 l 21.33938,11.97087 c 0,0 1.04095,0 2.34213,3.38308 1.30118,3.38307 0,20.29843 0,20.29843 0,0 -0.26024,3.12283 -3.38307,6.24567 -3.12284,3.12284 -7.02638,4.42402 -9.62875,4.94449 -2.60236,0.52047 -10.92992,0 -10.92992,0 0,0 1.04094,3.64331 -0.26024,7.80709 -1.30118,4.16378 -5.7252,10.92993 -5.7252,10.92993 0,0 -27.845284,24.46221 -26.544103,23.94174 1.301181,-0.52048 -46.061828,-46.32207 -46.061828,-46.32207 z"
         id="path5" /><path
         style="fill:none;fill-opacity:1;stroke:#000000;stroke-width:2.69999;stroke-linecap:round;stroke-linejoin:round;stroke-dasharray:none;stroke-opacity:1"
         d="m 129.85792,148.59494 c 0,0 -0.7807,11.19016 -3.6433,16.65512 -2.8626,5.46497 -8.5878,14.05277 -8.5878,14.05277"
         id="path12" /></g><text
       xml:space="preserve"
       style="font-weight:bold;font-size:47.9184px;font-family:Monospace;-inkscape-font-specification:'Monospace Bold';text-align:start;letter-spacing:-6.73853px;word-spacing:0px;writing-mode:lr-tb;direction:ltr;text-anchor:start;fill:url(#linearGradient18);stroke:none;stroke-width:2.54684;stroke-linecap:round;stroke-linejoin:round;stroke-dasharray:none;stroke-opacity:1"
       x="-252.1524"
       y="124.22089"
       id="text12"
       inkscape:label="crypté"
       transform="matrix(0.94327601,0,-0.43337007,1.0601351,0,0)"><tspan
         sodipodi:role="line"
         id="tspan12"
         style="font-style:normal;font-variant:normal;font-weight:normal;font-stretch:normal;font-size:47.9184px;font-family:Monospace;-inkscape-font-specification:Monospace;letter-spacing:-6.73853px;word-spacing:0px;fill:url(#linearGradient18);fill-opacity:1;stroke:none;stroke-width:2.54685"
         x="-252.1524"
         y="124.22089"
         dx="9.4327602"
         dy="18.86552">@!$µ%ôù§!;</tspan><tspan
         sodipodi:role="line"
         style="font-style:normal;font-variant:normal;font-weight:normal;font-stretch:normal;font-size:47.9184px;font-family:Monospace;-inkscape-font-specification:Monospace;letter-spacing:-6.73853px;word-spacing:0px;fill:url(#linearGradient18);fill-opacity:1;stroke:none;stroke-width:2.54685"
         x="-252.1524"
         y="184.73672"
         id="tspan14">;:&quot;#@ç'd;£</tspan></text><text
       xml:space="preserve"
       style="font-style:normal;font-variant:normal;font-weight:normal;font-stretch:normal;font-size:51.6483px;font-family:Monospace;-inkscape-font-specification:Monospace;text-align:start;letter-spacing:0px;word-spacing:0px;writing-mode:lr-tb;direction:ltr;text-anchor:start;fill:#000000;fill-opacity:1;stroke:none;stroke-width:4.39213;stroke-linecap:round;stroke-linejoin:round;stroke-dasharray:none;stroke-opacity:1"
       x="-493.01129"
       y="59.838783"
       id="text18"
       transform="scale(0.63272092,1.5804756)"><tspan
         sodipodi:role="line"
         id="tspan18"
         style="font-style:normal;font-variant:normal;font-weight:normal;font-stretch:normal;font-size:51.6483px;font-family:'Clarendon Blk BT';-inkscape-font-specification:'Clarendon Blk BT';letter-spacing:0px;fill:#000000;fill-opacity:1;stroke-width:4.39214"
         x="-493.01129"
         y="59.838783">Crypt'UsBee</tspan></text><text
       xml:space="preserve"
       style="font-style:normal;font-variant:normal;font-weight:normal;font-stretch:normal;font-size:24.6944px;font-family:Fenix;-inkscape-font-specification:Fenix;text-align:start;letter-spacing:0px;word-spacing:0px;writing-mode:lr-tb;direction:ltr;text-anchor:start;fill:#000000;fill-opacity:1;stroke:none;stroke-width:2.69999;stroke-linecap:round;stroke-linejoin:round;stroke-dasharray:none;stroke-opacity:1"
       x="-160.99951"
       y="225.93593"
       id="text19"
       transform="skewX(-35.041634)"><tspan
         sodipodi:role="line"
         id="tspan19"
         style="font-style:normal;font-variant:normal;font-weight:normal;font-stretch:normal;font-size:24.6944px;font-family:'Clarendon Lt BT';-inkscape-font-specification:'Clarendon Lt BT';stroke-width:2.7"
         x="-160.99951"
         y="225.93593"
         rotate="0 0 0 0 0 0 0 0 0 0 0 0 0 0 0 0 0 0 0 0 0 0 0 0 0 0 0 0 0 0 0 0">Une sécurité qui fera le bzzz !</tspan></text></g></svg>
