<?xml version="1.0" encoding="UTF-8" standalone="no"?>
<!-- Created with Inkscape (http://www.inkscape.org/) -->

<svg
   width="54.655663mm"
   height="79.364143mm"
   viewBox="0 0 54.655661 79.364142"
   version="1.1"
   id="svg1"
   xml:space="preserve"
   xmlns="http://www.w3.org/2000/svg"
   xmlns:svg="http://www.w3.org/2000/svg"
   xmlns:rdf="http://www.w3.org/1999/02/22-rdf-syntax-ns#"
   xmlns:cc="http://creativecommons.org/ns#"
   xmlns:dc="http://purl.org/dc/elements/1.1/"><title
     id="title1">favicon</title><defs
     id="defs1" /><g
     id="layer1"
     transform="translate(8.4220315,-43.453938)"><g
       id="g15"
       transform="translate(-119.9777,0.73605948)"><path
         style="fill:none;fill-opacity:1;stroke:#000000;stroke-width:2.7;stroke-linecap:round;stroke-linejoin:round;stroke-dasharray:none;stroke-opacity:1"
         d="m 122.57131,73.907115 c 0,0 -4.68426,2.602365 -6.50591,4.944491 -1.82165,2.342126 -3.90354,8.848034 -2.8626,12.231107 1.04095,3.383071 1.30118,7.026381 2.60236,8.067326 1.30118,1.040941 36.95356,21.079141 36.95356,21.079141 0,0 4.16378,1.56142 8.32756,-0.78071 4.16378,-2.34213 3.90355,-5.46496 3.64331,-8.5878 -0.26023,-3.12283 -0.52047,-14.573232 -7.54685,-24.201975 -7.02638,-9.628743 -10.66969,-9.628743 -10.66969,-9.628743 0,0 2.8626,-13.011817 6.24567,-16.134654 3.38307,-3.122835 8.32756,-6.505906 9.88898,-6.505906 1.56142,0 1.04095,0.260237 -0.52047,-2.602365 -1.56142,-2.862598 -4.42402,-0.780708 -6.24567,0.520473 -1.82166,1.301181 -8.32757,7.026381 -9.10828,10.409454 -0.7807,3.383071 -3.38307,11.970869 -3.38307,11.970869 0,0 -1.82165,-15.874415 -7.02638,-21.859851 -5.20472,-5.985433 -16.13465,-8.587798 -16.13465,-8.587798 0,0 -2.60236,-1.040945 -2.60236,2.08189 0,3.122837 4.16378,2.862601 4.16378,2.862601 0,0 7.54685,2.08189 10.14921,5.464964 2.60237,3.383071 4.68426,8.327561 4.9445,10.409451 0.26023,2.08189 1.30118,7.546853 1.30118,7.546853 0,0 -10.66969,-1.561417 -15.61418,1.301182 z"
         id="path1" /><path
         style="fill:none;fill-opacity:1;stroke:#e9ae2c;stroke-width:2.69999;stroke-linecap:round;stroke-linejoin:round;stroke-dasharray:none;stroke-opacity:1"
         d="m 130.11816,80.673259 c 0,0 -2.60236,4.163782 -2.08189,6.505908 0.52047,2.342126 1.04095,4.163783 2.60236,5.204728 1.56142,1.040944 16.39489,8.848035 16.39489,8.848035 0,0 2.08189,-4.944492 0.78071,-8.848035 -1.30118,-3.903546 -4.94449,-7.026381 -4.94449,-7.026381 0,0 -9.36851,-6.245672 -12.75158,-4.684255 z"
         id="path4" /></g></g><metadata
     id="metadata1"><rdf:RDF><cc:Work
         rdf:about=""><dc:title>favicon</dc:title></cc:Work></rdf:RDF></metadata></svg>
