<?xml version="1.0" encoding="UTF-8" standalone="no"?>
<!DOCTYPE svg PUBLIC "-//W3C//DTD SVG 1.0//EN" "http://www.w3.org/TR/2001/PR-SVG-20010719/DTD/svg10.dtd">
<svg width="45cm" height="55cm" viewBox="131 -408 888 1095" xmlns="http://www.w3.org/2000/svg" xmlns:xlink="http://www.w3.org/1999/xlink">
  <g>
    <rect style="fill: #e9ae2c" x="148.9" y="-380.8" width="233" height="251"/>
    <path style="fill: #e9ae2c" d="M 148.9,-380.8 A 16,16 0 0 0 132.9,-364.8 L 148.9,-364.8 z"/>
    <path style="fill: #e9ae2c" d="M 397.9,-364.8 A 16,16 0 0 0 381.9,-380.8 L 381.9,-364.8 z"/>
    <rect style="fill: #e9ae2c" x="132.9" y="-364.8" width="265" height="219"/>
    <path style="fill: #e9ae2c" d="M 132.9,-145.8 A 16,16 0 0 0 148.9,-129.8 L 148.9,-145.8 z"/>
    <path style="fill: #e9ae2c" d="M 381.9,-129.8 A 16,16 0 0 0 397.9,-145.8 L 381.9,-145.8 z"/>
    <line style="fill: none; fill-opacity:0; stroke-width: 2; stroke: #000000" x1="148.9" y1="-380.8" x2="381.9" y2="-380.8"/>
    <line style="fill: none; fill-opacity:0; stroke-width: 2; stroke: #000000" x1="148.9" y1="-129.8" x2="381.9" y2="-129.8"/>
    <path style="fill: none; fill-opacity:0; stroke-width: 2; stroke: #000000" d="M 148.9,-380.8 A 16,16 0 0 0 132.9,-364.8"/>
    <path style="fill: none; fill-opacity:0; stroke-width: 2; stroke: #000000" d="M 397.9,-364.8 A 16,16 0 0 0 381.9,-380.8"/>
    <line style="fill: none; fill-opacity:0; stroke-width: 2; stroke: #000000" x1="132.9" y1="-364.8" x2="132.9" y2="-145.8"/>
    <line style="fill: none; fill-opacity:0; stroke-width: 2; stroke: #000000" x1="397.9" y1="-364.8" x2="397.9" y2="-145.8"/>
    <path style="fill: none; fill-opacity:0; stroke-width: 2; stroke: #000000" d="M 132.9,-145.8 A 16,16 0 0 0 148.9,-129.8"/>
    <path style="fill: none; fill-opacity:0; stroke-width: 2; stroke: #000000" d="M 381.9,-129.8 A 16,16 0 0 0 397.9,-145.8"/>
    <text font-size="22.5778" style="fill: #000000;text-anchor:middle;font-family:monospace;font-style:oblique;font-weight:700" x="265.4" y="-250.611">
      <tspan x="265.4" y="-250.611">Nginx</tspan>
    </text>
  </g>
  <g>
    <rect style="fill: #e9ae2c" x="148.9" y="25.2" width="233" height="251"/>
    <path style="fill: #e9ae2c" d="M 148.9,25.2 A 16,16 0 0 0 132.9,41.2 L 148.9,41.2 z"/>
    <path style="fill: #e9ae2c" d="M 397.9,41.2 A 16,16 0 0 0 381.9,25.2 L 381.9,41.2 z"/>
    <rect style="fill: #e9ae2c" x="132.9" y="41.2" width="265" height="219"/>
    <path style="fill: #e9ae2c" d="M 132.9,260.2 A 16,16 0 0 0 148.9,276.2 L 148.9,260.2 z"/>
    <path style="fill: #e9ae2c" d="M 381.9,276.2 A 16,16 0 0 0 397.9,260.2 L 381.9,260.2 z"/>
    <line style="fill: none; fill-opacity:0; stroke-width: 2; stroke: #000000" x1="148.9" y1="25.2" x2="381.9" y2="25.2"/>
    <line style="fill: none; fill-opacity:0; stroke-width: 2; stroke: #000000" x1="148.9" y1="276.2" x2="381.9" y2="276.2"/>
    <path style="fill: none; fill-opacity:0; stroke-width: 2; stroke: #000000" d="M 148.9,25.2 A 16,16 0 0 0 132.9,41.2"/>
    <path style="fill: none; fill-opacity:0; stroke-width: 2; stroke: #000000" d="M 397.9,41.2 A 16,16 0 0 0 381.9,25.2"/>
    <line style="fill: none; fill-opacity:0; stroke-width: 2; stroke: #000000" x1="132.9" y1="41.2" x2="132.9" y2="260.2"/>
    <line style="fill: none; fill-opacity:0; stroke-width: 2; stroke: #000000" x1="397.9" y1="41.2" x2="397.9" y2="260.2"/>
    <path style="fill: none; fill-opacity:0; stroke-width: 2; stroke: #000000" d="M 132.9,260.2 A 16,16 0 0 0 148.9,276.2"/>
    <path style="fill: none; fill-opacity:0; stroke-width: 2; stroke: #000000" d="M 381.9,276.2 A 16,16 0 0 0 397.9,260.2"/>
    <text font-size="22.5778" style="fill: #000000;text-anchor:middle;font-family:monospace;font-style:oblique;font-weight:700" x="265.4" y="155.389">
      <tspan x="265.4" y="155.389">App</tspan>
    </text>
  </g>
  <g>
    <rect style="fill: #e9ae2c" x="766.9" y="172.2" width="233" height="251"/>
    <path style="fill: #e9ae2c" d="M 766.9,172.2 A 16,16 0 0 0 750.9,188.2 L 766.9,188.2 z"/>
    <path style="fill: #e9ae2c" d="M 1015.9,188.2 A 16,16 0 0 0 999.9,172.2 L 999.9,188.2 z"/>
    <rect style="fill: #e9ae2c" x="750.9" y="188.2" width="265" height="219"/>
    <path style="fill: #e9ae2c" d="M 750.9,407.2 A 16,16 0 0 0 766.9,423.2 L 766.9,407.2 z"/>
    <path style="fill: #e9ae2c" d="M 999.9,423.2 A 16,16 0 0 0 1015.9,407.2 L 999.9,407.2 z"/>
    <line style="fill: none; fill-opacity:0; stroke-width: 2; stroke: #000000" x1="766.9" y1="172.2" x2="999.9" y2="172.2"/>
    <line style="fill: none; fill-opacity:0; stroke-width: 2; stroke: #000000" x1="766.9" y1="423.2" x2="999.9" y2="423.2"/>
    <path style="fill: none; fill-opacity:0; stroke-width: 2; stroke: #000000" d="M 766.9,172.2 A 16,16 0 0 0 750.9,188.2"/>
    <path style="fill: none; fill-opacity:0; stroke-width: 2; stroke: #000000" d="M 1015.9,188.2 A 16,16 0 0 0 999.9,172.2"/>
    <line style="fill: none; fill-opacity:0; stroke-width: 2; stroke: #000000" x1="750.9" y1="188.2" x2="750.9" y2="407.2"/>
    <line style="fill: none; fill-opacity:0; stroke-width: 2; stroke: #000000" x1="1015.9" y1="188.2" x2="1015.9" y2="407.2"/>
    <path style="fill: none; fill-opacity:0; stroke-width: 2; stroke: #000000" d="M 750.9,407.2 A 16,16 0 0 0 766.9,423.2"/>
    <path style="fill: none; fill-opacity:0; stroke-width: 2; stroke: #000000" d="M 999.9,423.2 A 16,16 0 0 0 1015.9,407.2"/>
    <text font-size="22.5778" style="fill: #000000;text-anchor:middle;font-family:monospace;font-style:oblique;font-weight:700" x="883.4" y="302.389">
      <tspan x="883.4" y="302.389">PostgreSQL</tspan>
    </text>
  </g>
  <g>
    <rect style="fill: #e9ae2c" x="768.9" y="-99.8" width="233" height="251"/>
    <path style="fill: #e9ae2c" d="M 768.9,-99.8 A 16,16 0 0 0 752.9,-83.8 L 768.9,-83.8 z"/>
    <path style="fill: #e9ae2c" d="M 1017.9,-83.8 A 16,16 0 0 0 1001.9,-99.8 L 1001.9,-83.8 z"/>
    <rect style="fill: #e9ae2c" x="752.9" y="-83.8" width="265" height="219"/>
    <path style="fill: #e9ae2c" d="M 752.9,135.2 A 16,16 0 0 0 768.9,151.2 L 768.9,135.2 z"/>
    <path style="fill: #e9ae2c" d="M 1001.9,151.2 A 16,16 0 0 0 1017.9,135.2 L 1001.9,135.2 z"/>
    <line style="fill: none; fill-opacity:0; stroke-width: 2; stroke: #000000" x1="768.9" y1="-99.8" x2="1001.9" y2="-99.8"/>
    <line style="fill: none; fill-opacity:0; stroke-width: 2; stroke: #000000" x1="768.9" y1="151.2" x2="1001.9" y2="151.2"/>
    <path style="fill: none; fill-opacity:0; stroke-width: 2; stroke: #000000" d="M 768.9,-99.8 A 16,16 0 0 0 752.9,-83.8"/>
    <path style="fill: none; fill-opacity:0; stroke-width: 2; stroke: #000000" d="M 1017.9,-83.8 A 16,16 0 0 0 1001.9,-99.8"/>
    <line style="fill: none; fill-opacity:0; stroke-width: 2; stroke: #000000" x1="752.9" y1="-83.8" x2="752.9" y2="135.2"/>
    <line style="fill: none; fill-opacity:0; stroke-width: 2; stroke: #000000" x1="1017.9" y1="-83.8" x2="1017.9" y2="135.2"/>
    <path style="fill: none; fill-opacity:0; stroke-width: 2; stroke: #000000" d="M 752.9,135.2 A 16,16 0 0 0 768.9,151.2"/>
    <path style="fill: none; fill-opacity:0; stroke-width: 2; stroke: #000000" d="M 1001.9,151.2 A 16,16 0 0 0 1017.9,135.2"/>
    <text font-size="22.5778" style="fill: #000000;text-anchor:middle;font-family:monospace;font-style:oblique;font-weight:700" x="885.4" y="30.3889">
      <tspan x="885.4" y="30.3889">MongoDB</tspan>
    </text>
  </g>
  <g>
    <rect style="fill: #e9ae2c" x="148.9" y="434.2" width="233" height="251"/>
    <path style="fill: #e9ae2c" d="M 148.9,434.2 A 16,16 0 0 0 132.9,450.2 L 148.9,450.2 z"/>
    <path style="fill: #e9ae2c" d="M 397.9,450.2 A 16,16 0 0 0 381.9,434.2 L 381.9,450.2 z"/>
    <rect style="fill: #e9ae2c" x="132.9" y="450.2" width="265" height="219"/>
    <path style="fill: #e9ae2c" d="M 132.9,669.2 A 16,16 0 0 0 148.9,685.2 L 148.9,669.2 z"/>
    <path style="fill: #e9ae2c" d="M 381.9,685.2 A 16,16 0 0 0 397.9,669.2 L 381.9,669.2 z"/>
    <line style="fill: none; fill-opacity:0; stroke-width: 2; stroke: #000000" x1="148.9" y1="434.2" x2="381.9" y2="434.2"/>
    <line style="fill: none; fill-opacity:0; stroke-width: 2; stroke: #000000" x1="148.9" y1="685.2" x2="381.9" y2="685.2"/>
    <path style="fill: none; fill-opacity:0; stroke-width: 2; stroke: #000000" d="M 148.9,434.2 A 16,16 0 0 0 132.9,450.2"/>
    <path style="fill: none; fill-opacity:0; stroke-width: 2; stroke: #000000" d="M 397.9,450.2 A 16,16 0 0 0 381.9,434.2"/>
    <line style="fill: none; fill-opacity:0; stroke-width: 2; stroke: #000000" x1="132.9" y1="450.2" x2="132.9" y2="669.2"/>
    <line style="fill: none; fill-opacity:0; stroke-width: 2; stroke: #000000" x1="397.9" y1="450.2" x2="397.9" y2="669.2"/>
    <path style="fill: none; fill-opacity:0; stroke-width: 2; stroke: #000000" d="M 132.9,669.2 A 16,16 0 0 0 148.9,685.2"/>
    <path style="fill: none; fill-opacity:0; stroke-width: 2; stroke: #000000" d="M 381.9,685.2 A 16,16 0 0 0 397.9,669.2"/>
    <text font-size="22.5778" style="fill: #000000;text-anchor:middle;font-family:monospace;font-style:oblique;font-weight:700" x="265.4" y="564.389">
      <tspan x="265.4" y="564.389">API</tspan>
    </text>
  </g>
  <g>
    <polyline style="fill: none; fill-opacity:0; stroke-width: 2; stroke: #000000" points="265.4,-120.064 265.4,-52.3 265.4,-52.3 265.4,15.4639 "/>
    <polygon style="fill: #000000" points="265.4,-127.564 270.4,-117.564 265.4,-120.064 260.4,-117.564 "/>
    <polygon style="fill: none; fill-opacity:0; stroke-width: 2; stroke: #000000" points="265.4,-127.564 270.4,-117.564 265.4,-120.064 260.4,-117.564 "/>
    <polygon style="fill: #000000" points="265.4,22.9639 260.4,12.9639 265.4,15.4639 270.4,12.9639 "/>
    <polygon style="fill: none; fill-opacity:0; stroke-width: 2; stroke: #000000" points="265.4,22.9639 260.4,12.9639 265.4,15.4639 270.4,12.9639 "/>
  </g>
  <g>
    <polygon style="fill: #000000" points="544.5,-328 565.5,-328 558.5,-287.081 577,-287.081 544.5,-175 551.5,-255.058 537,-255.058 "/>
    <text font-size="12.8" style="fill: #000000;text-anchor:middle;font-family:monospace;font-style:oblique;font-weight:700" x="555" y="-153.287">
      <tspan x="555" y="-153.287">Internet</tspan>
    </text>
  </g>
  <g>
    <polyline style="fill: none; fill-opacity:0; stroke-width: 2; stroke: #000000" points="555,-255.058 466.954,-255.058 466.954,-255.3 408.644,-255.3 "/>
    <polygon style="fill: #000000" points="401.144,-255.3 411.144,-260.3 408.644,-255.3 411.144,-250.3 "/>
    <polygon style="fill: none; fill-opacity:0; stroke-width: 2; stroke: #000000" points="401.144,-255.3 411.144,-260.3 408.644,-255.3 411.144,-250.3 "/>
  </g>
  <g>
    <polyline style="fill: none; fill-opacity:0; stroke-width: 2; stroke: #000000" points="199.15,424.464 199.15,353.6 199.15,353.6 199.15,285.936 "/>
    <polygon style="fill: #000000" points="199.15,431.964 194.15,421.964 199.15,424.464 204.15,421.964 "/>
    <polygon style="fill: none; fill-opacity:0; stroke-width: 2; stroke: #000000" points="199.15,431.964 194.15,421.964 199.15,424.464 204.15,421.964 "/>
    <polygon style="fill: #000000" points="199.15,278.436 204.15,288.436 199.15,285.936 194.15,288.436 "/>
    <polygon style="fill: none; fill-opacity:0; stroke-width: 2; stroke: #000000" points="199.15,278.436 204.15,288.436 199.15,285.936 194.15,288.436 "/>
  </g>
  <g>
    <polyline style="fill: none; fill-opacity:0; stroke-width: 2; stroke: #000000" points="407.636,496.95 496.337,496.95 496.337,360.45 741.164,360.45 "/>
    <polygon style="fill: #000000" points="400.136,496.95 410.136,491.95 407.636,496.95 410.136,501.95 "/>
    <polygon style="fill: none; fill-opacity:0; stroke-width: 2; stroke: #000000" points="400.136,496.95 410.136,491.95 407.636,496.95 410.136,501.95 "/>
    <polygon style="fill: #000000" points="748.664,360.45 738.664,365.45 741.164,360.45 738.664,355.45 "/>
    <polygon style="fill: none; fill-opacity:0; stroke-width: 2; stroke: #000000" points="748.664,360.45 738.664,365.45 741.164,360.45 738.664,355.45 "/>
  </g>
  <g>
    <polyline style="fill: none; fill-opacity:0; stroke-width: 2; stroke: #000000" points="407.636,87.95 575.4,87.95 575.4,88.45 743.164,88.45 "/>
    <polygon style="fill: #000000" points="400.136,87.95 410.136,82.95 407.636,87.95 410.136,92.95 "/>
    <polygon style="fill: none; fill-opacity:0; stroke-width: 2; stroke: #000000" points="400.136,87.95 410.136,82.95 407.636,87.95 410.136,92.95 "/>
    <polygon style="fill: #000000" points="750.664,88.45 740.664,93.45 743.164,88.45 740.664,83.45 "/>
    <polygon style="fill: none; fill-opacity:0; stroke-width: 2; stroke: #000000" points="750.664,88.45 740.664,93.45 743.164,88.45 740.664,83.45 "/>
  </g>
  <g>
    <polyline style="fill: none; fill-opacity:0; stroke-width: 2; stroke: #000000" points="750.9,234.95 574.4,234.95 574.4,150.7 407.636,150.7 "/>
    <polygon style="fill: #000000" points="400.136,150.7 410.136,145.7 407.636,150.7 410.136,155.7 "/>
    <polygon style="fill: none; fill-opacity:0; stroke-width: 2; stroke: #000000" points="400.136,150.7 410.136,145.7 407.636,150.7 410.136,155.7 "/>
  </g>
  <text font-size="16.9333" style="fill: #000000;text-anchor:start;font-family:monospace;font-style:oblique;font-weight:normal" x="421.384" y="78.2746">
    <tspan x="421.384" y="78.2746">Utilisateurs / Postes / Token</tspan>
  </text>
  <text font-size="16.9333" style="fill: #000000;text-anchor:start;font-family:monospace;font-style:oblique;font-weight:normal" x="209.252" y="338.49">
    <tspan x="209.252" y="338.49">Décryptage</tspan>
    <tspan x="209.252" y="359.657">Cryptage</tspan>
    <tspan x="209.252" y="380.823">Validation du token</tspan>
  </text>
  <text font-size="16.9333" style="fill: #000000;text-anchor:start;font-family:monospace;font-style:oblique;font-weight:normal" x="422.798" y="139.086">
    <tspan x="422.798" y="139.086">Validation des droits</tspan>
  </text>
  <text font-size="16.9333" style="fill: #000000;text-anchor:start;font-family:monospace;font-style:oblique;font-weight:normal" x="517.55" y="385.159">
    <tspan x="517.55" y="385.159">Validation des droits</tspan>
  </text>
  <text font-size="16.9333" style="fill: #000000;text-anchor:start;font-family:monospace;font-style:normal;font-weight:normal" x="274.306" y="-81.5315">
    <tspan x="274.306" y="-81.5315">Flux</tspan>
    <tspan x="274.306" y="-60.3648">Internet</tspan>
    <tspan x="274.306" y="-39.1982">Reverse</tspan>
    <tspan x="274.306" y="-18.0315">Proxy</tspan>
  </text>
  <g>
    <rect style="fill: #b3b3b3" x="837.114" y="-288.903" width="75.6005" height="56.7004"/>
    <rect style="fill: none; fill-opacity:0; stroke-width: 1; stroke: #000000" x="837.114" y="-288.903" width="75.6005" height="56.7004"/>
    <rect style="fill: #000000" x="845.304" y="-280.713" width="59.2204" height="39.0603"/>
    <polygon style="fill: #b3b3b3" points="847.351,-232.203 886.254,-232.203 886.254,-223.383 849.399,-223.383 "/>
    <polygon style="fill: none; fill-opacity:0; stroke-width: 1; stroke: #000000" points="847.351,-232.203 886.254,-232.203 886.254,-223.383 849.399,-223.383 "/>
    <polygon style="fill: #b3b3b3" points="886.254,-232.203 902.477,-232.203 900.429,-223.383 886.254,-223.383 "/>
    <polygon style="fill: none; fill-opacity:0; stroke-width: 1; stroke: #000000" points="886.254,-232.203 902.477,-232.203 900.429,-223.383 886.254,-223.383 "/>
    <rect style="fill: #ffffff" x="888.9" y="-229.557" width="3.52802" height="3.52802"/>
    <rect style="fill: none; fill-opacity:0; stroke-width: 0.5; stroke: #000000" x="888.9" y="-229.557" width="3.52802" height="3.52802"/>
    <polygon style="fill: #b3b3b3" points="867.354,-223.383 882.474,-223.383 882.474,-218.973 890.034,-218.973 890.034,-214.563 859.794,-214.563 859.794,-218.973 867.354,-218.973 "/>
    <polygon style="fill: none; fill-opacity:0; stroke-width: 1; stroke: #000000" points="867.354,-223.383 882.474,-223.383 882.474,-218.973 890.034,-218.973 890.034,-214.563 859.794,-214.563 859.794,-218.973 867.354,-218.973 "/>
    <text font-size="16.9333" style="fill: #000000;text-anchor:middle;font-family:monospace;font-style:oblique;font-weight:normal" x="874.914" y="-197.226">
      <tspan x="874.914" y="-197.226">Postes Internes</tspan>
    </text>
  </g>
  <g>
    <polyline style="fill: none; fill-opacity:0; stroke-width: 2; stroke: #000000" points="555,-255.058 555,-255.48 874.914,-255.48 874.914,-261.469 "/>
    <polygon style="fill: #000000" points="874.914,-253.969 869.914,-263.969 874.914,-261.469 879.914,-263.969 "/>
    <polygon style="fill: none; fill-opacity:0; stroke-width: 2; stroke: #000000" points="874.914,-253.969 869.914,-263.969 874.914,-261.469 879.914,-263.969 "/>
  </g>
  <text font-size="16.9333" style="fill: #000000;text-anchor:start;font-family:sans-serif;font-style:oblique;font-weight:normal" x="619.374" y="-230.024">
    <tspan x="619.374" y="-230.024">Création de token</tspan>
    <tspan x="619.374" y="-208.857">Gestion utilisateurs</tspan>
  </text>
  <g>
    <rect style="fill: #b3b3b3" x="836.584" y="-407.432" width="75.6005" height="56.7004"/>
    <rect style="fill: none; fill-opacity:0; stroke-width: 1; stroke: #000000" x="836.584" y="-407.432" width="75.6005" height="56.7004"/>
    <rect style="fill: #000000" x="844.774" y="-399.242" width="59.2204" height="39.0603"/>
    <polygon style="fill: #b3b3b3" points="846.822,-350.732 885.725,-350.732 885.725,-341.912 848.869,-341.912 "/>
    <polygon style="fill: none; fill-opacity:0; stroke-width: 1; stroke: #000000" points="846.822,-350.732 885.725,-350.732 885.725,-341.912 848.869,-341.912 "/>
    <polygon style="fill: #b3b3b3" points="885.725,-350.732 901.947,-350.732 899.9,-341.912 885.725,-341.912 "/>
    <polygon style="fill: none; fill-opacity:0; stroke-width: 1; stroke: #000000" points="885.725,-350.732 901.947,-350.732 899.9,-341.912 885.725,-341.912 "/>
    <rect style="fill: #ffffff" x="888.371" y="-348.086" width="3.52802" height="3.52802"/>
    <rect style="fill: none; fill-opacity:0; stroke-width: 0.5; stroke: #000000" x="888.371" y="-348.086" width="3.52802" height="3.52802"/>
    <polygon style="fill: #b3b3b3" points="866.824,-341.912 881.945,-341.912 881.945,-337.502 889.505,-337.502 889.505,-333.092 859.264,-333.092 859.264,-337.502 866.824,-337.502 "/>
    <polygon style="fill: none; fill-opacity:0; stroke-width: 1; stroke: #000000" points="866.824,-341.912 881.945,-341.912 881.945,-337.502 889.505,-337.502 889.505,-333.092 859.264,-333.092 859.264,-337.502 866.824,-337.502 "/>
    <text font-size="16.9333" style="fill: #000000;text-anchor:middle;font-family:monospace;font-style:oblique;font-weight:normal" x="874.384" y="-315.755">
      <tspan x="874.384" y="-315.755">Postes Externes</tspan>
    </text>
  </g>
  <g>
    <polyline style="fill: none; fill-opacity:0; stroke-width: 2; stroke: #000000" points="555,-328.994 555,-375.688 874.384,-375.688 874.384,-379.998 "/>
    <polygon style="fill: #000000" points="874.384,-372.498 869.384,-382.498 874.384,-379.998 879.384,-382.498 "/>
    <polygon style="fill: none; fill-opacity:0; stroke-width: 2; stroke: #000000" points="874.384,-372.498 869.384,-382.498 874.384,-379.998 879.384,-382.498 "/>
  </g>
  <g>
    <rect style="fill: #ffffff" x="617.959" y="-396.881" width="196.5" height="62.7833"/>
    <text font-size="16.9333" style="fill: #000000;text-anchor:start;font-family:sans-serif;font-style:oblique;font-weight:normal" x="617.959" y="-379.931">
      <tspan x="617.959" y="-379.931">Enrôlement de postes</tspan>
      <tspan x="617.959" y="-358.764">Connexion à l'organisation</tspan>
      <tspan x="617.959" y="-337.597">Auth sur le poste</tspan>
    </text>
  </g>
</svg>
